<svg width="64" height="64" viewBox="0 0 64 64" xmlns="http://www.w3.org/2000/svg"><mask id="satori_om-id"><rect x="0" y="0" width="64" height="64" fill="#fff"/></mask><path x="0" y="0" width="64" height="64" fill="#121211" d="M14.08,0 h35.84 a14.08,14.08 0 0 1 14.08,14.08 v35.84 a14.08,14.08 0 0 1 -14.08,14.08 h-35.84 a14.08,14.08 0 0 1 -14.08,-14.08 v-35.84 a14.08,14.08 0 0 1 14.08,-14.08"/><mask id="satori_om-id-0"><rect x="13" y="13" width="38" height="40" fill="#fff"/></mask><g><path fill="#f1efea" d="M22.0 41.4L19.9 48L13.3 48L23.3 18.9L31.3 18.9L41.3 48L34.7 48L32.6 41.4L22.0 41.4ZM23.6 36.6L31.0 36.6L27.4 25.5L27.2 25.5L23.6 36.6Z "/></g><mask id="satori_om-id-0-1"><rect x="42" y="13" width="9" height="40" fill="#fff"/></mask><g><path fill="#8d98ff" d="M44.5 47.4L44.5 47.4Q43.6 47.4 43.1 46.8Q42.6 46.3 42.6 45.5L42.6 45.5Q42.6 44.4 43.3 43.8Q44.0 43.2 44.8 43.2L44.8 43.2Q45.6 43.2 46.2 43.7Q46.7 44.2 46.7 45.0L46.7 45.0Q46.7 46.1 46 46.7Q45.3 47.4 44.5 47.4Z "/></g></svg>